<svg width="332" height="74" viewBox="0 0 332 74" fill="none" xmlns="http://www.w3.org/2000/svg">
<path d="M71.5901 45.2379L31.6994 9.67798L18.6963 11.6513L64.3173 53.6911L71.5901 45.2379Z" fill="#DEE2F5"/>
<path d="M57.4646 61.8624L64.3172 53.6912L35.2255 28.9731L27.5464 36.832L57.4646 61.8624Z" fill="#8FACE3"/>
<path d="M44.3257 64.9317L32.8013 53.6909L39.1927 46.9523L60.13 64.9317H44.3257Z" fill="#4570C3"/>
<path d="M65.2093 55.0515L74 45.0543L31.9709 8L17.0197 9.65135C16.0664 9.75672 15.6578 10.9133 16.3365 11.5885L33.585 28.7485L26.1381 36.1571L37.2475 46.4833L30.3602 53.3346L43.0909 66.0001H61.9486C62.5576 66.0001 62.8627 65.2675 62.432 64.8391L59.7206 62.1416L65.2093 55.0515ZM31.1302 10.6359L70.4257 45.2802L64.1171 52.4548L34.4363 26.0209L20.1871 11.8447L31.1302 10.6359ZM29.8639 36.026L35.5311 30.3879L62.4441 54.3574L57.3753 61.0949L40.3783 46.023L29.8639 36.026ZM44.1441 63.4727L33.954 53.3349L39.0802 48.235L55.8337 63.0683L44.1441 63.4727Z" fill="#2B519B"/>
<path d="M107.996 55.0214V61.5187H88.6378V55.0214H107.996ZM91.7561 26.4813V61.5187H83V26.4813H91.7561ZM105.502 40.3904V46.6711H88.6378V40.3904H105.502ZM108.071 26.4813V33.0027H88.6378V26.4813H108.071Z" fill="#1F1F1F"/>
<path d="M135.587 55.0214V61.5187H117.226V55.0214H135.587ZM120.345 26.4813V61.5187H111.588V26.4813H120.345Z" fill="#1F1F1F"/>
<path d="M164.275 55.0214V61.5187H144.917V55.0214H164.275ZM148.035 26.4813V61.5187H139.279V26.4813H148.035ZM161.78 40.3904V46.6711H144.917V40.3904H161.78ZM164.35 26.4813V33.0027H144.917V26.4813H164.35Z" fill="#1F1F1F"/>
<path d="M186.577 52.2059C186.577 51.6604 186.494 51.1711 186.327 50.738C186.161 50.2888 185.853 49.8717 185.404 49.4866C184.955 49.1016 184.307 48.7166 183.458 48.3315C182.627 47.9305 181.529 47.5134 180.166 47.0802C178.569 46.5668 177.031 45.9893 175.551 45.3476C174.07 44.6898 172.748 43.9278 171.584 43.0615C170.42 42.1791 169.497 41.1524 168.815 39.9813C168.133 38.7941 167.792 37.4144 167.792 35.8422C167.792 34.3342 168.142 32.9786 168.84 31.7754C169.538 30.5561 170.511 29.5214 171.759 28.6711C173.023 27.8048 174.503 27.1471 176.199 26.6979C177.895 26.2326 179.75 26 181.762 26C184.423 26 186.768 26.4492 188.797 27.3476C190.843 28.2299 192.439 29.4893 193.587 31.1257C194.751 32.746 195.333 34.6631 195.333 36.877H186.627C186.627 35.9947 186.435 35.2166 186.053 34.5428C185.687 33.869 185.13 33.3396 184.382 32.9545C183.633 32.5695 182.693 32.377 181.563 32.377C180.465 32.377 179.542 32.5374 178.794 32.8583C178.045 33.1791 177.48 33.6123 177.097 34.1578C176.715 34.6872 176.523 35.2727 176.523 35.9144C176.523 36.4438 176.673 36.9251 176.972 37.3583C177.288 37.7754 177.729 38.1684 178.295 38.5374C178.877 38.9064 179.575 39.2594 180.39 39.5963C181.222 39.9332 182.153 40.262 183.184 40.5829C185.113 41.1765 186.826 41.8422 188.323 42.5802C189.836 43.3021 191.109 44.1283 192.14 45.0588C193.188 45.9733 193.977 47.016 194.51 48.1872C195.058 49.3583 195.333 50.6818 195.333 52.1578C195.333 53.7299 195.017 55.1257 194.385 56.3449C193.753 57.5642 192.847 58.5989 191.666 59.4492C190.485 60.2834 189.071 60.9171 187.425 61.3503C185.778 61.7834 183.941 62 181.912 62C180.049 62 178.211 61.7754 176.399 61.3262C174.603 60.861 172.973 60.1551 171.509 59.2086C170.046 58.246 168.873 57.0187 167.992 55.5267C167.127 54.0187 166.695 52.2299 166.695 50.1604H175.476C175.476 51.1872 175.617 52.0535 175.9 52.7594C176.183 53.4652 176.598 54.0348 177.147 54.4679C177.696 54.885 178.369 55.1898 179.168 55.3824C179.966 55.5588 180.881 55.6471 181.912 55.6471C183.026 55.6471 183.924 55.4947 184.606 55.1898C185.288 54.869 185.787 54.4519 186.103 53.9385C186.419 53.4091 186.577 52.8315 186.577 52.2059Z" fill="#1F1F1F"/>
<path d="M209.153 26.4813V61.5187H200.422V26.4813H209.153Z" fill="#1F1F1F"/>
<path d="M245.649 26.4813V61.5187H236.918L224.071 39.7166V61.5187H215.315V26.4813H224.071L236.918 48.2834V26.4813H245.649Z" fill="#1F1F1F"/>
<path d="M262.987 61.5187H254.929L254.979 55.0214H262.987C264.65 55.0214 266.055 54.6364 267.203 53.8663C268.367 53.0963 269.249 51.9492 269.847 50.4251C270.463 48.885 270.77 46.992 270.77 44.746V43.2299C270.77 41.5455 270.596 40.0695 270.246 38.8021C269.914 37.5187 269.415 36.4519 268.75 35.6016C268.084 34.7353 267.253 34.0856 266.255 33.6524C265.274 33.2193 264.143 33.0027 262.862 33.0027H254.78V26.4813H262.862C265.324 26.4813 267.577 26.8904 269.623 27.7086C271.685 28.5107 273.465 29.6658 274.961 31.1738C276.475 32.6658 277.639 34.4385 278.454 36.492C279.285 38.5294 279.701 40.7914 279.701 43.2781V44.746C279.701 47.2166 279.285 49.4786 278.454 51.5321C277.639 53.5856 276.483 55.3583 274.986 56.8503C273.489 58.3422 271.718 59.4973 269.673 60.3155C267.644 61.1176 265.415 61.5187 262.987 61.5187ZM259.944 26.4813V61.5187H251.188V26.4813H259.944Z" fill="#1F1F1F"/>
<path d="M315 43.3021V44.7219C315 47.4011 314.609 49.8075 313.828 51.9412C313.063 54.0588 311.973 55.8717 310.56 57.3797C309.146 58.8717 307.475 60.0187 305.545 60.8209C303.616 61.607 301.487 62 299.159 62C296.814 62 294.669 61.607 292.723 60.8209C290.794 60.0187 289.114 58.8717 287.684 57.3797C286.27 55.8717 285.173 54.0588 284.391 51.9412C283.626 49.8075 283.243 47.4011 283.243 44.7219V43.3021C283.243 40.623 283.626 38.2166 284.391 36.0829C285.173 33.9492 286.262 32.1364 287.659 30.6444C289.073 29.1364 290.744 27.9893 292.673 27.2032C294.619 26.4011 296.764 26 299.109 26C301.438 26 303.566 26.4011 305.495 27.2032C307.441 27.9893 309.121 29.1364 310.535 30.6444C311.948 32.1364 313.046 33.9492 313.828 36.0829C314.609 38.2166 315 40.623 315 43.3021ZM306.119 44.7219V43.254C306.119 41.5214 305.961 39.9973 305.645 38.6818C305.346 37.3503 304.897 36.2353 304.298 35.3369C303.699 34.4385 302.959 33.7647 302.078 33.3155C301.213 32.8503 300.224 32.6176 299.109 32.6176C297.945 32.6176 296.931 32.8503 296.066 33.3155C295.201 33.7647 294.478 34.4385 293.895 35.3369C293.313 36.2353 292.873 37.3503 292.573 38.6818C292.291 39.9973 292.149 41.5214 292.149 43.254V44.7219C292.149 46.4385 292.291 47.9626 292.573 49.2941C292.873 50.6096 293.313 51.7246 293.895 52.639C294.494 53.5535 295.226 54.2433 296.091 54.7086C296.972 55.1738 297.995 55.4064 299.159 55.4064C300.273 55.4064 301.263 55.1738 302.128 54.7086C302.993 54.2433 303.716 53.5535 304.298 52.639C304.897 51.7246 305.346 50.6096 305.645 49.2941C305.961 47.9626 306.119 46.4385 306.119 44.7219Z" fill="#1F1F1F"/>
</svg>
